<?xml version="1.0" encoding="UTF-8" standalone="no"?>
<svg
   width="103.12669mm"
   height="68.870003mm"
   viewBox="0 0 103.12669 68.870001"
   version="1.1"
   id="svg8"
   xmlns:xlink="http://www.w3.org/1999/xlink"
   xmlns="http://www.w3.org/2000/svg"
   xmlns:svg="http://www.w3.org/2000/svg"
   xmlns:rdf="http://www.w3.org/1999/02/22-rdf-syntax-ns#"
   xmlns:cc="http://creativecommons.org/ns#"
   xmlns:dc="http://purl.org/dc/elements/1.1/">
  <defs
     id="defs2">
    <linearGradient
       id="swatch2">
      <stop
         style="stop-color:#4ab1d7;stop-opacity:1;"
         offset="0"
         id="stop2" />
    </linearGradient>
    <linearGradient
       id="swatch1">
      <stop
         style="stop-color:#ff9a00;stop-opacity:1;"
         offset="0"
         id="stop1" />
    </linearGradient>
    <clipPath
       clipPathUnits="userSpaceOnUse"
       id="clipPath892">
      <g
         id="g910"
         style="display:none">
        <circle
           r="4"
           cy="119.62239"
           cx="212.00294"
           id="circle894"
           style="opacity:1;fill:#ffffff;fill-rule:evenodd;stroke-width:2.10589"
           d="m 216.00294,119.62239 a 4,4 0 0 1 -4,4 4,4 0 0 1 -4,-4 4,4 0 0 1 4,-4 4,4 0 0 1 4,4 z" />
        <circle
           style="display:inline;opacity:1;fill:#ffffff;fill-rule:evenodd;stroke-width:2.10589"
           id="circle896"
           cx="196.92476"
           cy="136.71413"
           r="4"
           d="m 200.92476,136.71413 a 4,4 0 0 1 -4,4 4,4 0 0 1 -4,-4 4,4 0 0 1 4,-4 4,4 0 0 1 4,4 z" />
        <circle
           r="4"
           cy="136.71413"
           cx="224.20302"
           id="circle898"
           style="display:inline;opacity:1;fill:#ffffff;fill-rule:evenodd;stroke-width:2.10589"
           d="m 228.20302,136.71413 a 4,4 0 0 1 -4,4 4,4 0 0 1 -4,-4 4,4 0 0 1 4,-4 4,4 0 0 1 4,4 z" />
        <circle
           style="display:inline;opacity:1;fill:#ffffff;fill-rule:evenodd;stroke-width:2.10589"
           id="circle900"
           cx="244.69048"
           cy="141.57701"
           r="4"
           d="m 248.69048,141.57701 a 4,4 0 0 1 -4,4 4,4 0 0 1 -4,-4 4,4 0 0 1 4,-4 4,4 0 0 1 4,4 z" />
        <circle
           r="4"
           cy="129.31906"
           cx="258.01309"
           id="circle902"
           style="display:inline;opacity:1;fill:#ffffff;fill-rule:evenodd;stroke-width:2.10589"
           d="m 262.01309,129.31906 a 4,4 0 0 1 -4,4 4,4 0 0 1 -4,-4 4,4 0 0 1 4,-4 4,4 0 0 1 4,4 z" />
        <circle
           style="display:inline;opacity:1;fill:#ffffff;fill-rule:evenodd;stroke-width:2.10589"
           id="circle904"
           cx="274.75986"
           cy="136.74289"
           r="4"
           d="m 278.75986,136.74289 a 4,4 0 0 1 -4,4 4,4 0 0 1 -4,-4 4,4 0 0 1 4,-4 4,4 0 0 1 4,4 z" />
        <circle
           r="4"
           cy="112.08313"
           cx="265.72464"
           id="circle906"
           style="display:inline;opacity:1;fill:#ffffff;fill-rule:evenodd;stroke-width:2.10589"
           d="m 269.72464,112.08313 a 4,4 0 0 1 -4,4 4,4 0 0 1 -4,-4 4,4 0 0 1 4,-4 4,4 0 0 1 4,4 z" />
        <circle
           style="display:inline;opacity:1;fill:#ffffff;fill-rule:evenodd;stroke-width:2.10589"
           id="circle908"
           cx="238.01479"
           cy="118.32719"
           r="4"
           d="m 242.01479,118.32719 a 4,4 0 0 1 -4,4 4,4 0 0 1 -4,-4 4,4 0 0 1 4,-4 4,4 0 0 1 4,4 z" />
      </g>
      <path
         id="lpe_path-effect912"
         class="powerclip"
         d="m 182.83201,101.0117 h 102.9464 v 72.0714 h -102.9464 z m 33.17093,18.61069 a 4,4 0 0 0 -4,-4 4,4 0 0 0 -4,4 4,4 0 0 0 4,4 4,4 0 0 0 4,-4 z m -15.07818,17.09174 a 4,4 0 0 0 -4,-4 4,4 0 0 0 -4,4 4,4 0 0 0 4,4 4,4 0 0 0 4,-4 z m 27.27826,0 a 4,4 0 0 0 -4,-4 4,4 0 0 0 -4,4 4,4 0 0 0 4,4 4,4 0 0 0 4,-4 z m 20.48746,4.86288 a 4,4 0 0 0 -4,-4 4,4 0 0 0 -4,4 4,4 0 0 0 4,4 4,4 0 0 0 4,-4 z m 13.32261,-12.25795 a 4,4 0 0 0 -4,-4 4,4 0 0 0 -4,4 4,4 0 0 0 4,4 4,4 0 0 0 4,-4 z m 16.74677,7.42383 a 4,4 0 0 0 -4,-4 4,4 0 0 0 -4,4 4,4 0 0 0 4,4 4,4 0 0 0 4,-4 z m -9.03522,-24.65976 a 4,4 0 0 0 -4,-4 4,4 0 0 0 -4,4 4,4 0 0 0 4,4 4,4 0 0 0 4,-4 z m -27.70985,6.24406 a 4,4 0 0 0 -4,-4 4,4 0 0 0 -4,4 4,4 0 0 0 4,4 4,4 0 0 0 4,-4 z" />
    </clipPath>
    <linearGradient
       xlink:href="#swatch2"
       id="linearGradient2"
       x1="187.83202"
       y1="137.04739"
       x2="280.77841"
       y2="137.04739"
       gradientUnits="userSpaceOnUse" />
  </defs>
  <metadata
     id="metadata5">
    <rdf:RDF>
      <cc:Work
         rdf:about="">
        <dc:format>image/svg+xml</dc:format>
        <dc:type
           rdf:resource="http://purl.org/dc/dcmitype/StillImage" />
        <dc:title />
      </cc:Work>
    </rdf:RDF>
  </metadata>
  <g
     id="layer4"
     style="display:inline"
     transform="translate(-177.24867,-106.0117)">
    <path
       id="path997-3"
       style="display:inline;opacity:1;fill:url(#linearGradient2);fill-opacity:1;stroke:none;stroke-width:0.264583px;stroke-linecap:butt;stroke-linejoin:miter;stroke-opacity:1"
       d="m 265.58052,106.01259 c -0.12658,-0.002 -0.2535,-7.4e-4 -0.37982,0.005 -0.91866,0.0392 -1.8243,0.28628 -2.63292,0.76017 -2.10431,1.23319 -3.11247,2.97785 -3.11247,5.38727 0,1.6773 0.42596,2.82489 1.51412,4.07933 l 0.78703,0.90693 -1.3224,2.97656 -1.3224,2.97656 h -1.0542 c -1.58375,0 -2.98353,0.51099 -4.1615,1.51929 -0.58164,0.49787 -1.15898,0.86582 -1.28312,0.81752 -0.12415,-0.0483 -2.12303,-1.26756 -4.44211,-2.7094 l -4.2168,-2.62154 v -1.7601 c 0,-1.44632 -0.13048,-1.98361 -0.73329,-3.01222 -0.40349,-0.6885 -1.20418,-1.59262 -1.77922,-2.00918 -2.54591,-1.84424 -5.65746,-1.55476 -7.94886,0.73949 -1.30685,1.30846 -1.82266,2.56776 -1.80506,4.40593 0.0119,1.23787 0.54747,2.87598 1.16323,3.55638 0.40797,0.4508 0.27634,0.66968 -2.26084,3.75274 -4.37437,5.31553 -4.27342,5.2124 -4.86895,4.97644 -0.29105,-0.11532 -1.06494,-0.22533 -1.7198,-0.24443 l -1.19062,-0.0346 -2.64583,-3.45148 c -1.45521,-1.89808 -2.73422,-3.60494 -2.84221,-3.79304 -0.10798,-0.18811 -0.0187,-0.7671 0.19844,-1.28675 0.49789,-1.1917 0.50916,-3.53475 0.0222,-4.69997 -1.01043,-2.41794 -3.06841,-3.7791 -5.71283,-3.7791 -1.43736,0 -1.97641,0.13193 -3.00343,0.73381 -1.57494,0.92298 -2.69977,2.45868 -3.09335,4.22351 -0.2692,1.20717 -0.23809,1.57006 0.2651,3.0608 l 0.57102,1.69085 -0.8754,0.95085 c -0.48145,0.52293 -2.1703,2.28337 -3.75326,3.9119 -2.62631,2.7019 -2.93434,2.93932 -3.52278,2.7156 -1.83326,-0.69701 -4.86791,0.22076 -6.28385,1.90014 -1.19242,1.41427 -1.53664,2.50538 -1.42317,4.51342 0.0825,1.46085 0.24557,1.99085 0.89658,2.91714 0.94539,1.34513 2.22323,2.25929 3.71761,2.65927 l 1.08934,0.29145 0.5364,2.53421 0.53691,2.53422 -0.62114,0.66249 c -0.5226,0.55746 -8.51692,17.05623 -8.99636,18.56682 -0.1499,0.47223 0.007,0.49497 2.91662,0.42427 l 3.07423,-0.0744 1.64848,-3.70416 c 0.9064,-2.0373 2.06166,-4.68562 2.5678,-5.88492 0.50617,-1.19932 0.98264,-2.18181 1.05834,-2.18281 0.0757,-0.001 0.51342,1.09926 0.97306,2.44533 2.33171,6.82852 2.90284,8.26754 3.55948,8.97154 0.59662,0.63939 0.90653,0.75138 2.07635,0.75138 2.65287,0 2.73863,-0.0819 8.20157,-7.86412 1.65727,-2.36088 3.05389,-4.25213 3.10369,-4.20233 0.0498,0.0498 0.26089,2.02478 0.4687,4.38888 0.20782,2.36411 0.45708,4.99948 0.55397,5.85598 l 0.17622,1.55701 h 3.144 3.14347 l -0.14056,-0.99219 c -0.0774,-0.54572 -0.55266,-4.74012 -1.05626,-9.32088 -0.74697,-6.79448 -1.00771,-8.45333 -1.41645,-9.00617 -0.49912,-0.67509 -0.49775,-0.68619 0.41754,-2.9161 0.50535,-1.23116 0.99651,-2.31267 1.09141,-2.40347 0.0948,-0.0908 0.67726,-0.22831 1.29449,-0.30541 l 1.12241,-0.14004 2.03812,2.94762 c 1.121,1.6213 2.0213,3.18757 2.0004,3.48041 -0.0397,0.55786 -0.43059,2.7926 -2.18126,12.47624 -0.5825,3.2221 -1.05937,5.93077 -1.05937,6.01927 0,0.0885 3.95692,0.16072 8.79274,0.16072 h 8.79223 l 2.45257,-2.44223 c 1.34879,-1.3432 2.45204,-2.53382 2.45204,-2.64583 0,-0.11207 -3.46056,-0.20361 -7.69048,-0.20361 -7.19948,0 -7.6823,-0.0296 -7.55613,-0.46302 0.14759,-0.50702 1.25775,-6.67039 1.7849,-9.90947 l 0.33176,-2.03812 2.59209,-1.58802 2.59158,-1.58853 0.98598,0.41186 c 0.67269,0.28108 1.55347,0.37999 2.77244,0.31109 1.47633,-0.0834 1.98831,-0.24292 2.94866,-0.91984 l 1.1622,-0.81907 2.75074,2.10271 c 3.90387,2.98452 3.68902,2.60449 2.32699,4.12171 -1.46018,1.62656 -2.30942,3.3162 -2.61689,5.20537 -0.64016,3.93331 1.41486,7.82581 4.91287,9.30538 2.37937,1.00642 3.59129,1.15352 9.53741,1.15652 l 5.85339,0.003 2.47116,-2.57969 2.47117,-2.57969 -8.05997,-0.13229 c -9.30177,-0.15267 -9.4035,-0.17675 -10.55285,-2.4877 -0.58822,-1.18277 -0.61391,-1.38748 -0.31522,-2.50424 0.4601,-1.72033 1.37747,-2.78885 3.13624,-3.65249 1.51767,-0.74523 1.54706,-0.74878 7.53132,-0.82838 l 6.00739,-0.0796 2.41277,-2.56625 2.41329,-2.56573 -3.48868,-0.0739 c -3.46252,-0.0735 -3.48711,-0.0784 -3.32124,-0.66146 0.0919,-0.32309 0.36618,-1.39124 0.60926,-2.3735 0.43884,-1.77324 0.44854,-1.78594 1.35238,-1.78594 3.78566,0 7.01827,-3.86211 6.14277,-7.33908 -0.43704,-1.7356 -0.91463,-2.54078 -2.11925,-3.57188 -1.13967,-0.97553 -2.56637,-1.52077 -4.00854,-1.53117 l -0.89555,-0.006 -2.56832,-6.31692 -2.56832,-6.31745 1.28571,-1.28571 c 2.35193,-2.35194 2.65763,-5.43238 0.79427,-8.00468 -1.17068,-1.61607 -3.07457,-2.52584 -4.97334,-2.56212 z m -1.0144,12.25249 c 0.15727,-2.7e-4 0.32539,0.007 0.49609,0.0212 l 1.24127,0.10593 2.56832,6.43062 2.5678,6.43061 -0.94723,0.83199 c -2.75188,2.41654 -2.74825,6.8755 0.007,9.29504 l 0.95343,0.83768 -0.64957,2.67994 -0.65009,2.67994 -3.62304,0.13229 -3.62355,0.13229 -0.53692,-2.38125 c -0.29523,-1.30969 -0.93534,-4.16719 -1.42265,-6.35 l -0.88573,-3.96875 0.85524,-0.4532 c 1.8719,-0.99102 3.03651,-3.04921 3.03651,-5.36763 0,-1.80678 -0.44342,-2.9173 -1.73323,-4.34496 l -0.99012,-1.09657 1.12035,-2.59312 c 0.61619,-1.42631 1.19924,-2.70871 1.29552,-2.84996 0.0722,-0.1063 0.44853,-0.1711 0.92036,-0.17208 z m -21.63951,3.83542 4.36201,2.71767 4.36149,2.71818 0.0284,1.55391 c 0.0155,0.85483 0.17286,1.91162 0.35036,2.34818 0.3188,0.78409 0.29606,0.8187 -1.87999,2.836 -1.43955,1.33454 -2.34049,1.98658 -2.59984,1.88205 -0.21828,-0.088 -1.00196,-0.33666 -1.74201,-0.55242 -1.21723,-0.35491 -1.49476,-0.34893 -2.91042,0.06 -1.2046,0.34795 -1.84019,0.73614 -2.76055,1.68672 -1.88458,1.94646 -2.32705,4.25164 -1.2821,6.68072 0.31087,0.72263 0.51923,1.35554 0.46303,1.40664 -0.0562,0.0511 -0.90808,0.58307 -1.89291,1.18235 -1.63618,0.99562 -1.94648,1.08986 -3.59978,1.08986 h -1.80919 l -2.02262,-2.9068 c -1.11235,-1.59862 -2.02262,-3.00859 -2.02262,-3.13366 0,-0.12507 0.25108,-0.45453 0.5576,-0.73174 2.15985,-1.95332 2.25165,-5.95224 0.18861,-8.2119 l -0.51521,-0.56379 3.39049,-4.11913 c 2.39201,-2.90634 3.50682,-4.07221 3.78685,-3.95945 0.21828,0.0879 1.17078,0.21012 2.11666,0.27182 1.95648,0.1277 3.16806,-0.26756 4.55838,-1.48828 z m -34.70537,2.6262 0.7891,0.40824 c 1.21563,0.62862 3.54389,0.74047 4.93665,0.2372 0.65484,-0.23663 1.29587,-0.45688 1.4242,-0.48938 0.12833,-0.0325 1.39577,1.41919 2.81688,3.22565 l 2.58383,3.28455 -0.89401,0.84336 c -2.66196,2.51055 -2.56886,6.60926 0.20826,9.17308 l 1.09347,1.01028 -0.98237,2.48201 c -0.86636,2.18894 -1.07027,2.50002 -1.72702,2.63137 -1.20865,0.24173 -2.30193,1.37087 -5.53972,5.7211 -1.68389,2.26245 -3.62919,4.93393 -4.32325,5.9371 -0.78291,1.13159 -1.31168,1.68397 -1.39319,1.45521 -0.0722,-0.2028 -0.73992,-1.97579 -1.48363,-3.94033 -0.74372,-1.96453 -1.66968,-4.4538 -2.05776,-5.53196 -0.85986,-2.38885 -2.00193,-3.72845 -3.17913,-3.72845 -0.64072,0 -0.85158,-0.1322 -0.94878,-0.59532 -0.0687,-0.32741 -0.29727,-1.39897 -0.50798,-2.38125 l -0.38293,-1.78593 0.89349,-0.42427 c 2.34979,-1.11504 3.87889,-4.25309 3.28301,-6.73705 -0.17306,-0.72138 -0.60561,-1.73998 -0.96119,-2.26395 -0.35557,-0.52397 -0.61102,-1.04091 -0.56792,-1.14825 0.0431,-0.10733 1.61755,-1.81226 3.49901,-3.78891 z m 45.5228,9.26722 0.70073,0.49868 c 0.3855,0.27451 1.28352,0.64707 1.99575,0.82786 0.71226,0.18081 1.32485,0.34353 1.36115,0.36173 0.12155,0.0609 2.71198,11.84417 2.71198,12.3362 0,0.26722 -0.18398,0.48576 -0.40927,0.48576 -0.22532,0 -0.90293,0.23813 -1.50534,0.52917 -0.60237,0.29104 -1.10256,0.52858 -1.11156,0.52658 -0.009,-0.002 -1.6467,-1.25289 -3.63957,-2.78071 l -3.62355,-2.77812 0.28215,-0.80874 c 0.37044,-1.06263 0.16508,-3.02872 -0.45165,-4.32635 l -0.49402,-1.03973 2.09134,-1.91616 z"
       clip-path="url(#clipPath892)"
       transform="matrix(1.1095287,0,0,1.1095287,-31.156338,-11.611329)" />
  </g>
</svg>
